<svg id="Vrstva_1" data-name="Vrstva 1" xmlns="http://www.w3.org/2000/svg" viewBox="0 0 117.82 112.03"><defs><style>.cls-1{fill:#eadcca;}</style></defs><title>CZ-EN button</title><path class="cls-1" d="M22,64.42c-5.67,0-9.91-4-9.91-9.72S16.41,45,22,45a9.36,9.36,0,0,1,6.89,2.7l-3,3a4.58,4.58,0,0,0-3.72-1.69,5.3,5.3,0,0,0-5.3,5.64c0,3.35,2.15,5.64,5.22,5.64A4.7,4.7,0,0,0,26,58.47l3.1,2.91A9.15,9.15,0,0,1,22,64.42Z"/><path class="cls-1" d="M30.11,63.93V60.08l8.76-10.79H30.32V45.52H44.44v3.56l-9,11h9.15v3.85Z"/><path class="cls-1" d="M54.86,65.28l-2.94-1,8-20.2,2.94,1Z"/><path class="cls-1" d="M71.29,63.93V45.52H83.67v3.77H75.58v3.46h7.65v3.56H75.58v3.82h8.56v3.8Z"/><path class="cls-1" d="M98.78,63.93l-7.41-12h-.08l.1,12H87.08V45.52h5.07l7.38,12h.08l-.11-12h4.32V63.93Z"/></svg>