<svg id="Vrstva_1" data-name="Vrstva 1" xmlns="http://www.w3.org/2000/svg" viewBox="0 0 117.82 112.03"><defs><style>.cls-1{fill:#eadcca;}</style></defs><title>Download button</title><path class="cls-1" d="M24.36,63.37H32V82.53H85.75V63.38h7.7v.38q0,9.33,0,18.65a7.64,7.64,0,0,1-6.38,7.7,8.29,8.29,0,0,1-1.41.11q-26.75,0-53.5,0a7.65,7.65,0,0,1-7.68-6.39,7.19,7.19,0,0,1-.11-1.22V63.37Z"/><path class="cls-1" d="M58.9,74.87l-19.18-23H55.05V21.17h7.68V51.83H78.1C71.68,59.54,65.31,67.19,58.9,74.87Z"/></svg>