<?xml version="1.0" encoding="utf-8"?>
<!-- Generator: Adobe Illustrator 23.0.0, SVG Export Plug-In . SVG Version: 6.00 Build 0)  -->
<svg version="1.1" id="Vrstva_1" xmlns="http://www.w3.org/2000/svg" xmlns:xlink="http://www.w3.org/1999/xlink" x="0px" y="0px"
	 viewBox="0 0 117.8 112" style="enable-background:new 0 0 117.8 112;" xml:space="preserve">
<style type="text/css">
	.st0{fill:#231F20;}
	.st1{opacity:0.99;fill:#EADCCA;enable-background:new    ;}
</style>
<title>FB icon</title>
<path class="st0" d="M61.7,82.3V57.5h7l0.9-8.8h-7.9c0-1.9-0.1-3.8,0-5.7c0-1,0.8-1.8,1.8-1.8c0,0,0.1,0,0.1,0c1.3-0.1,2.7,0,4-0.1
	h1.7v-8.4c-0.1,0-0.2-0.1-0.3-0.1c-3.1,0-6.2-0.1-9.2,0.1c-3.7,0.1-6.9,2.6-7.8,6.2c-0.4,1.7-0.6,3.4-0.7,5.1c-0.1,1.5,0,3.1,0,4.7
	h-4.9v8.8h4.9v24.8L61.7,82.3z"/>
<circle class="st0" cx="58.5" cy="55.9" r="42.7"/>
<path class="st1" d="M61.7,82.3H51.4V57.5h-4.9v-8.8h4.8c0-1.6-0.1-3.2,0-4.7c0.1-1.7,0.3-3.4,0.7-5.1c1-3.6,4.2-6.1,7.9-6.2
	c3-0.3,6.1-0.1,9.2-0.1c0.1,0,0.2,0,0.3,0.1v8.4h-1.8c-1.3,0-2.7,0-4,0.1c-1-0.1-1.8,0.7-1.9,1.7c0,0,0,0.1,0,0.1
	c-0.1,1.9,0,3.7,0,5.7h7.8l-0.9,8.8h-7L61.7,82.3z"/>
</svg>
