<svg id="Vrstva_1" data-name="Vrstva 1" xmlns="http://www.w3.org/2000/svg" viewBox="0 0 117.82 112.03"><defs><style>.cls-1{fill:#eadcca;}</style></defs><title>HOME button</title><path class="cls-1" d="M23.88,54.64c.7-.71,1.35-1.46,2.1-2.12Q40.77,39.47,55.6,26.45A5,5,0,0,1,58.37,25a4.37,4.37,0,0,1,3.5,1.19q9.39,8.28,18.79,16.53l12,10.58a6.11,6.11,0,0,1,1,1.09c.46.67.26,1.19-.51,1.41a5.08,5.08,0,0,1-1.35.14H82.47v.88q0,13.53,0,27.08a2.89,2.89,0,0,1-1.07,2.6,2.82,2.82,0,0,1-1.48.6c-4,0-8,0-12.16,0V68.92a3.35,3.35,0,0,0-.6-2.19,2.9,2.9,0,0,0-2.4-1.11c-3.9,0-7.79,0-11.69,0a2.84,2.84,0,0,0-3,3.17q0,8.7,0,17.38v.87c-.24,0-.43,0-.63,0-3.62,0-7.25,0-10.87,0-2.14,0-3.22-1.11-3.22-3.26V55.91H25.91a2.85,2.85,0,0,1-2-.58Z"/></svg>