<?xml version="1.0" encoding="utf-8"?>
<!-- Generator: Adobe Illustrator 23.0.0, SVG Export Plug-In . SVG Version: 6.00 Build 0)  -->
<svg version="1.1" id="Vrstva_1" xmlns="http://www.w3.org/2000/svg" xmlns:xlink="http://www.w3.org/1999/xlink" x="0px" y="0px"
	 viewBox="0 0 117.8 112" style="enable-background:new 0 0 117.8 112;" xml:space="preserve">
<style type="text/css">
	.st0{fill:#231F20;}
	.st1{opacity:0.99;fill:#EADCCA;enable-background:new    ;}
</style>
<circle class="st0" cx="58.5" cy="55.9" r="42.7"/>
<title>IG icon</title>
<path class="st1" d="M34.4,55.9c0-3.4,0-6.8,0-10.2c-0.1-6.9,4.9-12.9,11.7-14c0.9-0.2,1.8-0.2,2.7-0.2c6.8,0,13.6,0,20.4,0
	c7.7-0.2,14.2,5.9,14.4,13.6c0,0.2,0,0.5,0,0.7c0,6.8,0,13.6,0,20.4c0.1,7-4.9,13-11.7,14.1c-0.9,0.1-1.8,0.2-2.7,0.2
	c-6.8,0-13.6,0-20.4,0c-7.2,0.2-13.3-5.1-14.3-12.2c-0.1-0.9-0.2-1.9-0.1-2.8C34.4,62.3,34.4,59.1,34.4,55.9z M80.3,56L80.3,56
	c0-3.8,0.2-7.5,0-11.3c-0.3-5.5-4.8-9.9-10.4-9.9c-7.2-0.1-14.5-0.1-21.7,0c-5.5,0-10.1,4.3-10.3,9.8c-0.2,7.6-0.2,15.1,0,22.7
	c0.3,5.4,4.7,9.7,10.2,9.8c7.3,0.1,14.7,0.1,22,0c5.4-0.1,9.9-4.4,10.2-9.8C80.4,63.6,80.3,59.8,80.3,56z"/>
<path class="st0" d="M80.3,56c0,3.8,0.2,7.6,0,11.3c-0.3,5.4-4.8,9.7-10.3,9.8c-7.3,0.1-14.7,0.1-22,0c-5.4-0.1-9.9-4.4-10.2-9.8
	c-0.2-7.6-0.2-15.1,0-22.7c0.3-5.5,4.8-9.8,10.4-9.8c7.2-0.1,14.5-0.1,21.7,0c5.5,0.1,10.1,4.4,10.4,9.9
	C80.4,48.5,80.2,52.3,80.3,56L80.3,56z M46.3,57c0,6.9,5.5,12.6,12.4,12.6c6.9,0,12.6-5.5,12.6-12.4c0-6.9-5.5-12.6-12.4-12.6
	c0,0,0,0,0,0C51.9,44.6,46.3,50.2,46.3,57C46.3,57.1,46.3,57.1,46.3,57L46.3,57z M77.4,43.3c0-2.4-1.9-4.3-4.3-4.3
	c-2.4,0-4.3,1.9-4.3,4.3c0,2.4,1.9,4.3,4.3,4.3C75.5,47.6,77.4,45.7,77.4,43.3z"/>
<path class="st1" d="M46.3,57.1c0-6.9,5.6-12.5,12.6-12.5s12.5,5.6,12.5,12.6l0,0c0,6.9-5.6,12.5-12.6,12.5S46.3,64,46.3,57.1z
	 M49.6,57.1c0,5.1,4.1,9.2,9.2,9.2s9.2-4.1,9.2-9.2c0-5-4-9.1-9-9.2c-5.1-0.1-9.3,4-9.4,9C49.6,57,49.6,57.1,49.6,57.1z"/>
<path class="st1" d="M77.4,43.3c0.1,2.4-1.7,4.4-4.1,4.5c-2.4,0.1-4.4-1.7-4.5-4.1c0-0.1,0-0.3,0-0.4c0.1-2.4,2.1-4.2,4.5-4.1
	C75.5,39.4,77.3,41.1,77.4,43.3z"/>
<path class="st0" d="M49.6,57.1c0-5.1,4.1-9.2,9.2-9.2S68,52,68,57.1c0,5.1-4.1,9.2-9.2,9.2c0,0-0.1,0-0.1,0
	C53.7,66.3,49.6,62.2,49.6,57.1z"/>
</svg>
