<?xml version="1.0" encoding="utf-8"?>
<!-- Generator: Adobe Illustrator 23.0.0, SVG Export Plug-In . SVG Version: 6.00 Build 0)  -->
<svg version="1.1" id="Vrstva_1" xmlns="http://www.w3.org/2000/svg" xmlns:xlink="http://www.w3.org/1999/xlink" x="0px" y="0px"
	 viewBox="0 0 117.8 112" style="enable-background:new 0 0 117.8 112;" xml:space="preserve">
<style type="text/css">
	.st0{fill:#231F20;}
	.st1{opacity:0.99;}
	.st2{fill:#EADCCA;}
</style>
<circle class="st0" cx="58.5" cy="55.9" r="42.7"/>
<title>SPOTIFY icon</title>
<g class="st1">
	<path class="st2" d="M59,26.8c16.2-0.2,29.5,13.6,29.1,30c-0.4,16.1-13.8,28.8-29.9,28.4C42,84.7,29.3,71.3,29.8,55.2
		C30.2,39.4,43.2,26.8,59,26.8z M54,42.1c-4.3-0.2-8.6,0.4-12.8,1.7c-1.1,0.3-1.9,1.1-2.5,2.1C37.9,48,40,50,42.3,49.3
		c6.2-1.6,12.7-2,19.1-1.1c5.2,0.5,10.3,2.1,14.9,4.5c1.4,0.7,3.1,0.2,3.8-1.2c0.7-1.3,0.3-3-1-3.8c-0.7-0.5-1.5-0.9-2.3-1.3
		C69.8,43.3,62.4,42,54,42.1z M53.1,56.8c3.1,0.3,5.5,0.5,7.9,0.8c4.1,0.6,8,2,11.6,4.1c1.1,0.8,2.6,0.5,3.3-0.6
		c0.2-0.3,0.4-0.6,0.4-1c0.3-1.5-0.7-2.3-1.9-2.9c-9.7-5.3-21.1-6.6-31.7-3.6c-1.8,0.5-2.6,1.8-2.2,3.2s1.8,1.8,3.5,1.5
		C47.3,57.7,50.6,57.2,53.1,56.8L53.1,56.8z M41.8,64.4c0,2.1,1.2,2.8,3.1,2.3c5.8-1.2,11.6-1.7,17.3-0.1c2.6,0.8,5.1,1.8,7.5,3
		c0.9,0.6,2.1,0.4,2.7-0.5c0,0,0-0.1,0.1-0.1c0.6-0.8,0.4-1.9-0.4-2.5c-0.1-0.1-0.2-0.1-0.3-0.2c-0.3-0.2-0.7-0.5-1.1-0.7
		C62,60.9,52.8,60.8,43.5,63C42.8,63.2,42.2,64.1,41.8,64.4z"/>
</g>
</svg>
