<svg id="Vrstva_1" data-name="Vrstva 1" xmlns="http://www.w3.org/2000/svg" viewBox="0 0 117.82 112.03"><defs><style>.cls-1{fill:#231f20;}.cls-2{fill:#eadcca;opacity:0.99;}</style></defs><title>VIMEO icon</title><circle class="cls-1" cx="58.5" cy="55.94" r="42.74"/><path class="cls-2" d="M34.93,48.59c2.15-1.79,4.16-3.55,6.26-5.19,1.73-1.34,3.52-2.63,5.37-3.79a5.53,5.53,0,0,1,5.92-.28,6.39,6.39,0,0,1,3,4.34c.55,2.22.91,4.47,1.31,6.72a47.93,47.93,0,0,0,2.26,9.46A10.6,10.6,0,0,0,60.25,62c.62.89,1.28,1,2.09.3a18.3,18.3,0,0,0,2.42-2.56,22.9,22.9,0,0,0,3.77-6.46,8.84,8.84,0,0,0,.41-2.56,2.35,2.35,0,0,0-2.58-2.61,27.16,27.16,0,0,0-3.35.43c-.22,0-.43.1-.65.15l-.2-.16c.65-1.37,1.19-2.8,2-4.11a11.77,11.77,0,0,1,10.71-6.22,13.73,13.73,0,0,1,3.08.22c2.76.61,4.21,2.51,4.72,5.21a15.07,15.07,0,0,1-1.5,9.53,52.86,52.86,0,0,1-6.63,10.1,61.21,61.21,0,0,1-8.84,9.36,18.55,18.55,0,0,1-6.85,3.87,5.83,5.83,0,0,1-6.9-2.35,18.22,18.22,0,0,1-2.84-5.82c-1.4-4.72-2.78-9.45-4.28-14.13a15.56,15.56,0,0,0-1.93-3.76c-.89-1.32-1.63-1.39-3-.59-.72.41-1.4.87-2.12,1.28-.16.09-.51.12-.59,0C36.39,50.36,35.69,49.5,34.93,48.59Z"/></svg>