<?xml version="1.0" encoding="utf-8"?>
<!-- Generator: Adobe Illustrator 23.0.0, SVG Export Plug-In . SVG Version: 6.00 Build 0)  -->
<svg version="1.1" id="Vrstva_1" xmlns="http://www.w3.org/2000/svg" xmlns:xlink="http://www.w3.org/1999/xlink" x="0px" y="0px"
	 viewBox="0 0 762.6 204.2" style="enable-background:new 0 0 762.6 204.2;" xml:space="preserve">
<style type="text/css">
	.st0{fill:none;stroke:#EADCCA;stroke-width:0.6;stroke-miterlimit:10;}
	.st1{fill:#EADCCA;}
</style>
<title>Gramce playery</title>
<g>
	<circle class="st0" cx="88.8" cy="77.1" r="16.7"/>
	<rect x="42.8" y="27.6" class="st0" width="92.2" height="102.1"/>
	<rect x="24.8" y="21.8" class="st0" width="127.8" height="153"/>
	<rect x="42.8" y="139.8" class="st0" width="92.2" height="43"/>
	<circle class="st0" cx="89" cy="76.9" r="34.3"/>
	<circle class="st0" cx="89.1" cy="77.4" r="43.8"/>
	<circle class="st0" cx="144" cy="30.9" r="7.3"/>
	<circle class="st0" cx="52.5" cy="163.2" r="7.3"/>
	<circle class="st0" cx="144" cy="49.6" r="7.3"/>
	<rect x="61.4" y="142.4" class="st0" width="56.2" height="30.3"/>
	<rect x="61.4" y="177.1" class="st0" width="11.8" height="3.4"/>
	<rect x="75.6" y="177.1" class="st0" width="11.8" height="3.4"/>
	<rect x="90.5" y="177.1" class="st0" width="11.8" height="3.4"/>
	<rect x="122" y="149.6" class="st0" width="8.8" height="3.4"/>
	<rect x="122" y="156.1" class="st0" width="8.8" height="3.4"/>
	<rect x="122" y="162" class="st0" width="8.8" height="3.4"/>
	<rect x="122" y="168.3" class="st0" width="8.8" height="3.4"/>
	<rect x="105.8" y="177.1" class="st0" width="11.8" height="3.4"/>
	<line class="st0" x1="34.4" y1="32" x2="34.4" y2="76.3"/>
	<rect x="29.2" y="27.6" class="st0" width="9.7" height="51.5"/>
	<rect x="29.7" y="49.2" class="st0" width="9.3" height="8.6"/>
	<circle class="st0" cx="672.4" cy="77.1" r="16.7"/>
	<rect x="626.3" y="27.6" class="st0" width="92.2" height="102.1"/>
	<rect x="608.4" y="21.8" class="st0" width="127.8" height="153"/>
	<rect x="626.3" y="139.8" class="st0" width="92.2" height="43"/>
	<circle class="st0" cx="672.6" cy="76.9" r="34.3"/>
	<circle class="st0" cx="672.7" cy="77.4" r="43.8"/>
	<circle class="st0" cx="727.6" cy="30.9" r="7.3"/>
	<circle class="st0" cx="636.1" cy="163.2" r="7.3"/>
	<circle class="st0" cx="727.6" cy="49.6" r="7.3"/>
	<rect x="645" y="142.4" class="st0" width="56.2" height="30.3"/>
	<rect x="645" y="177.1" class="st0" width="11.8" height="3.4"/>
	<rect x="659.2" y="177.1" class="st0" width="11.8" height="3.4"/>
	<rect x="674" y="177.1" class="st0" width="11.8" height="3.4"/>
	<rect x="705.6" y="149.6" class="st0" width="8.8" height="3.4"/>
	<rect x="705.6" y="156.1" class="st0" width="8.8" height="3.4"/>
	<rect x="705.6" y="162" class="st0" width="8.8" height="3.4"/>
	<rect x="705.6" y="168.3" class="st0" width="8.8" height="3.4"/>
	<rect x="689.3" y="177.1" class="st0" width="11.8" height="3.4"/>
	<line class="st0" x1="618" y1="32" x2="618" y2="76.3"/>
	<rect x="612.8" y="27.6" class="st0" width="9.7" height="51.5"/>
	<rect x="613.3" y="49.2" class="st0" width="9.3" height="8.6"/>
	<path class="st1" d="M449.6,21.6h146v162.5h-146V21.6z M595.3,22H450v161.7h145.3V22z"/>
	<path class="st1" d="M528.3,165.2h53.7v10.4h-53.7V165.2z M581.7,165.6h-53v9.7h53V165.6z"/>
	<path class="st1" d="M464.4,164.6H518v11.1h-53.6V164.6z M517.6,164.9h-52.8v10.4h52.8V164.9z"/>
	<rect x="469.8" y="169.9" class="st1" width="42.8" height="0.4"/>
	<path class="st1" d="M486.2,166.4h8.4v8.4h-8.4V166.4z M494.3,166.8h-7.7v7.7h7.7V166.8z"/>
	<path class="st1" d="M456.4,26h13.5v13.4h-13.5V26z M469.4,26.4h-12.7V39h12.7V26.4z"/>
	<path class="st1" d="M456.4,45.4h7.9v3.9h-7.9V45.4z M463.9,45.8h-7.2v3.1h7.2V45.8z"/>
	<path class="st1" d="M456.4,52.9h7.9v3.9h-7.9V52.9z M463.9,53.3h-7.2v3.1h7.2V53.3z"/>
	<path class="st1" d="M562.3,156h5.2v5.2h-5.2V156z M567.2,156.4h-4.4v4.4h4.4V156.4z"/>
	<path class="st1" d="M555.8,156h5.2v5.2h-5.2V156z M560.6,156.4h-4.4v4.4h4.4V156.4z"/>
	<path class="st1" d="M478.6,156h5.2v5.2h-5.2V156z M483.5,156.4H479v4.4h4.4L483.5,156.4z"/>
	<path class="st1" d="M472,156h5.2v5.2H472V156z M476.8,156.4h-4.4v4.4h4.4V156.4z"/>
	<path class="st1" d="M465.4,156h5.2v5.2h-5.2V156z M470.2,156.4h-4.4v4.4h4.4L470.2,156.4z"/>
	<path class="st1" d="M479.6,26.4c3.6,0,6.6,2.9,6.6,6.6c0,3.6-2.9,6.6-6.6,6.6c-3.6,0-6.6-2.9-6.6-6.5
		C473,29.4,476,26.4,479.6,26.4C479.6,26.4,479.6,26.4,479.6,26.4z M479.6,39.2c3.4,0,6.2-2.8,6.2-6.2c0-3.4-2.8-6.2-6.2-6.2
		c-3.4,0-6.2,2.8-6.2,6.2c0,0,0,0,0,0C473.4,36.4,476.2,39.2,479.6,39.2z"/>
	<path class="st1" d="M522.5,26.8c37.1,0,67.2,30.1,67.2,67.2s-30.1,67.2-67.2,67.2c-37.1,0-67.2-30.1-67.2-67.2c0,0,0,0,0,0
		C455.4,56.9,485.4,26.8,522.5,26.8z M522.5,160.8c36.9,0,66.8-29.9,66.8-66.8s-29.9-66.8-66.8-66.8c-36.9,0-66.8,29.9-66.8,66.8
		c0,0,0,0,0,0C455.7,130.9,485.6,160.8,522.5,160.8L522.5,160.8z"/>
	<path class="st1" d="M522.4,36c32,0,58,25.9,58,57.9c0,32-25.9,58-58,58s-58-25.9-58-57.9c0,0,0,0,0,0C464.4,62,490.4,36,522.4,36z
		 M522.4,151.5c31.8,0,57.6-25.8,57.6-57.6c0-31.8-25.8-57.6-57.6-57.6s-57.6,25.8-57.6,57.6c0,0,0,0,0,0
		C464.9,125.7,490.6,151.5,522.4,151.5L522.4,151.5z"/>
	<rect x="463.1" y="91.8" class="st1" width="51.6" height="2.7"/>
	<path class="st1" d="M523.3,86.7c3.8,0,6.9,3.1,6.9,6.9s-3.1,6.9-6.9,6.9s-6.9-3.1-6.9-6.9c0,0,0,0,0,0
		C516.4,89.8,519.5,86.7,523.3,86.7z M523.3,100.1c3.6,0,6.5-2.9,6.5-6.5s-2.9-6.5-6.5-6.5s-6.5,2.9-6.5,6.5c0,0,0,0,0,0
		C516.8,97.2,519.7,100.1,523.3,100.1z"/>
	<path class="st1" d="M523.8,69.2c13.2,0,23.9,10.7,23.9,23.9S537,117,523.8,117s-23.9-10.7-23.9-23.9v0
		C499.9,79.9,510.6,69.2,523.8,69.2z M523.8,116.6c13,0,23.5-10.5,23.5-23.5s-10.5-23.5-23.5-23.5c-13,0-23.5,10.5-23.5,23.5v0
		C500.3,106.1,510.8,116.6,523.8,116.6z"/>
	<path class="st1" d="M164.8,21.6h146v162.5h-146L164.8,21.6z M310.4,22H165.2v161.7h145.3V22z"/>
	<path class="st1" d="M243.5,165.2h53.8v10.4h-53.8V165.2z M296.8,165.6h-53v9.7h53V165.6z"/>
	<path class="st1" d="M179.5,164.6h53.6v11.1h-53.6V164.6z M232.7,164.9h-52.8v10.4h52.8V164.9z"/>
	<rect x="184.9" y="169.9" class="st1" width="42.8" height="0.4"/>
	<path class="st1" d="M201.4,166.4h8.4v8.4h-8.4V166.4z M209.4,166.8h-7.7v7.7h7.7V166.8z"/>
	<path class="st1" d="M171.5,26H185v13.4h-13.5V26z M184.6,26.4h-12.7V39h12.7V26.4z"/>
	<path class="st1" d="M171.5,45.4h7.9v3.9h-7.9V45.4z M179,45.8h-7.2v3.1h7.1L179,45.8z"/>
	<path class="st1" d="M171.5,52.9h7.9v3.9h-7.9V52.9z M179,53.3h-7.2v3.1h7.1L179,53.3z"/>
	<path class="st1" d="M277.5,156h5.2v5.2h-5.2V156z M282.3,156.4h-4.4v4.4h4.4V156.4z"/>
	<path class="st1" d="M270.9,156h5.2v5.2h-5.2V156z M275.7,156.4h-4.4v4.4h4.4L275.7,156.4z"/>
	<path class="st1" d="M193.8,156h5.2v5.2h-5.2L193.8,156z M198.6,156.4h-4.4v4.4h4.4V156.4z"/>
	<path class="st1" d="M187.1,156h5.2v5.2h-5.2V156z M191.9,156.4h-4.4v4.4h4.4V156.4z"/>
	<path class="st1" d="M180.5,156h5.2v5.2h-5.2V156z M185.4,156.4h-4.4v4.4h4.4V156.4z"/>
	<path class="st1" d="M194.7,26.4c3.6,0,6.6,2.9,6.6,6.6s-2.9,6.6-6.6,6.6c-3.6,0-6.6-2.9-6.6-6.5C188.2,29.4,191.1,26.4,194.7,26.4
		C194.7,26.4,194.7,26.4,194.7,26.4z M194.7,39.2c3.4,0,6.2-2.8,6.2-6.2c0-3.4-2.8-6.2-6.2-6.2c-3.4,0-6.2,2.8-6.2,6.2c0,0,0,0,0,0
		C188.6,36.4,191.3,39.2,194.7,39.2z"/>
	<path class="st1" d="M237.6,26.8c37.1,0,67.2,30.1,67.2,67.2s-30.1,67.2-67.2,67.2c-37.1,0-67.2-30.1-67.2-67.2c0,0,0,0,0,0
		C170.5,56.9,200.6,26.8,237.6,26.8z M237.6,160.8c36.9,0,66.8-29.9,66.9-66.8c0-36.9-29.9-66.8-66.8-66.8
		c-36.9,0-66.8,29.9-66.8,66.8c0,0,0,0,0,0C170.9,130.9,200.8,160.8,237.6,160.8L237.6,160.8z"/>
	<path class="st1" d="M237.5,36c32,0,58,25.9,58,57.9s-25.9,58-57.9,58s-58-25.9-58-57.9c0,0,0,0,0,0C179.5,62,205.5,36,237.5,36z
		 M237.5,151.5c31.8,0,57.6-25.8,57.6-57.6c0-31.8-25.8-57.6-57.6-57.6S179.9,62.2,179.9,94C180,125.7,205.7,151.5,237.5,151.5
		L237.5,151.5z"/>
	<rect x="178.2" y="91.8" class="st1" width="51.6" height="2.7"/>
	<path class="st1" d="M238.4,86.7c3.8,0,6.9,3.1,6.9,6.9s-3.1,6.9-6.9,6.9c-3.8,0-6.9-3.1-6.9-6.9c0,0,0,0,0,0
		C231.5,89.8,234.6,86.7,238.4,86.7z M238.4,100.1c3.6,0,6.5-2.9,6.5-6.5c0-3.6-2.9-6.5-6.5-6.5c-3.6,0-6.5,2.9-6.5,6.5c0,0,0,0,0,0
		C231.9,97.2,234.8,100.1,238.4,100.1z"/>
	<path class="st1" d="M238.9,69.2c13.2,0,23.9,10.7,23.9,23.9S252.1,117,238.9,117c-13.2,0-23.9-10.7-23.9-23.9c0,0,0,0,0,0
		C215,79.9,225.7,69.2,238.9,69.2z M238.9,116.6c13,0,23.5-10.5,23.5-23.5s-10.5-23.5-23.5-23.5c-13,0-23.5,10.5-23.5,23.5
		c0,0,0,0,0,0C215.4,106.1,225.9,116.6,238.9,116.6z"/>
	<path class="st1" d="M325.8,21.6h111.9v162.5H325.8V21.6z M437.3,22H326.2v161.7h111.1V22z"/>
	<rect x="371.8" y="32.3" class="st1" width="20.7" height="0.4"/>
	<path class="st1" d="M379.8,28.1h4.4v8.5h-4.4V28.1z M383.8,28.5h-3.6v7.8h3.6V28.5z"/>
	<rect x="401.5" y="45.5" class="st1" width="0.4" height="20.8"/>
	<path class="st1" d="M397.2,61.1h9.1V66h-9.1V61.1z M405.9,61.5h-8.3v4.1h8.3V61.5z"/>
	<rect x="361.9" y="45.5" class="st1" width="0.4" height="20.8"/>
	<path class="st1" d="M357.5,61.1h9.1V66h-9.1V61.1z M366.3,61.5h-8.3v4.1h8.3V61.5z"/>
	<path class="st1" d="M421.4,90h8.6v8.6h-8.6L421.4,90z M429.6,90.4h-7.8v7.8h7.8V90.4z"/>
	<path class="st1" d="M421.4,79.3h8.6v8.6h-8.6L421.4,79.3z M429.6,79.7h-7.8v7.8h7.8V79.7z"/>
	<path class="st1" d="M410.8,90h8.6v8.6h-8.6V90z M419.1,90.4h-7.8v7.8h7.8V90.4z"/>
	<path class="st1" d="M410.8,79.3h8.6v8.6h-8.6V79.3z M419.1,79.7h-7.8v7.8h7.8V79.7z"/>
	<path class="st1" d="M399.6,90h8.6v8.6h-8.6V90z M407.8,90.4H400v7.8h7.8V90.4z"/>
	<path class="st1" d="M399.6,79.3h8.6v8.6h-8.6V79.3z M407.8,79.7H400v7.8h7.8V79.7z"/>
	<path class="st1" d="M389,90h8.6v8.6H389V90z M397.2,90.4h-7.8v7.8h7.8L397.2,90.4z"/>
	<path class="st1" d="M389,79.3h8.6v8.6H389V79.3z M397.2,79.7h-7.8v7.8h7.8L397.2,79.7z"/>
	<path class="st1" d="M366.9,90h8.6v8.6h-8.6V90z M375.1,90.4h-7.8v7.8h7.8V90.4z"/>
	<path class="st1" d="M366.9,79.3h8.6v8.6h-8.6V79.3z M375.1,79.7h-7.8v7.8h7.8V79.7z"/>
	<path class="st1" d="M356.3,90h8.6v8.6h-8.6V90z M364.5,90.4h-7.8v7.8h7.8V90.4z"/>
	<path class="st1" d="M356.3,79.3h8.6v8.6h-8.6V79.3z M364.5,79.7h-7.8v7.8h7.8V79.7z"/>
	<path class="st1" d="M345.1,90h8.6v8.6h-8.6V90z M353.3,90.4h-7.8v7.8h7.8V90.4z"/>
	<path class="st1" d="M345.1,79.3h8.6v8.6h-8.6V79.3z M353.3,79.7h-7.8v7.8h7.8V79.7z"/>
	<path class="st1" d="M334.5,90h8.6v8.6h-8.6V90z M342.7,90.4h-7.8v7.8h7.8V90.4z"/>
	<path class="st1" d="M334.5,79.3h8.6v8.6h-8.6V79.3z M342.7,79.7h-7.8v7.8h7.8V79.7z"/>
	<rect x="412.8" y="67.7" class="st1" width="24.7" height="0.4"/>
	<rect x="412.6" y="67.9" class="st1" width="0.4" height="8.6"/>
	<rect x="351.1" y="76.3" class="st1" width="61.7" height="0.4"/>
	<rect x="350.9" y="67.9" class="st1" width="0.4" height="8.6"/>
	<rect x="326" y="67.7" class="st1" width="25.1" height="0.4"/>
	<path class="st1" d="M409,107.4h11v74.4h-11V107.4z M419.6,107.8h-10.3v73.7h10.2L419.6,107.8z"/>
	<path class="st1" d="M343.8,107.4h11v74.4h-11V107.4z M354.4,107.8h-10.2v73.7h10.2V107.8z"/>
	<path class="st1" d="M366.6,125.7h30.9v55h-30.9V125.7z M397.1,126.1H367v54.2h30.1L397.1,126.1z"/>
	<path class="st1" d="M355.9,107.4h52.5v16.5h-52.5V107.4z M408,107.8h-51.7v15.7H408L408,107.8z"/>
	<path class="st1" d="M325.8,134.6H342v15.6h-16.2V134.6z M341.6,135h-15.5v14.8h15.5V135z"/>
	<path class="st1" d="M325.8,107.4H342v26.3h-16.2V107.4z M341.6,107.8h-15.5v25.6h15.5V107.8z"/>
	<path class="st1" d="M421.4,134.6h16.3v15.6h-16.3V134.6z M437.3,135h-15.5v14.8h15.5V135z"/>
	<path class="st1" d="M421.4,107.4h16.3v26.3h-16.3V107.4z M437.3,107.8h-15.5v25.6h15.5V107.8z"/>
	<path class="st1" d="M384.3,169.8h5.3v3.4h-5.3V169.8z M389.1,170.2h-4.5v2.6h4.5V170.2z"/>
	<path class="st1" d="M374.4,169.8h5.3v3.4h-5.3V169.8z M379.3,170.2h-4.5v2.6h4.5V170.2z"/>
	<path class="st1" d="M427.9,173.5c0.2,0,0.3,0,0.5,0.1c1.4,0.3,2.4,1.7,2.1,3.1s-1.7,2.4-3.1,2.1c-0.7-0.1-1.3-0.5-1.7-1.1
		c-0.4-0.6-0.5-1.3-0.4-2C425.6,174.4,426.7,173.5,427.9,173.5z M427.9,178.4c1.3,0,2.3-1,2.3-2.3c0-1.3-1-2.3-2.3-2.3
		c-1.1,0-2,0.8-2.2,1.8c-0.1,0.6,0,1.2,0.4,1.7c0.3,0.5,0.9,0.9,1.5,1C427.6,178.4,427.8,178.4,427.9,178.4z"/>
	<path class="st1" d="M414.7,173.5h0.1c1.5,0.1,2.6,1.3,2.5,2.8c0,0.7-0.3,1.4-0.9,1.8c-1.1,1-2.8,0.9-3.8-0.1
		c-0.5-0.5-0.7-1.2-0.7-2C412.1,174.6,413.2,173.5,414.7,173.5z M414.7,178.4c0.6,0,1.1-0.2,1.5-0.6c0.9-0.8,1-2.3,0.2-3.2
		c-0.8-0.9-2.3-1-3.2-0.2c-0.9,0.8-1,2.3-0.2,3.2c0,0,0,0,0,0c0.4,0.5,1,0.7,1.6,0.8H414.7z"/>
	<path class="st1" d="M414.7,161.9h0.1c0.7,0,1.4,0.3,1.8,0.9c0.5,0.5,0.7,1.2,0.7,1.9c0,0.7-0.4,1.4-0.9,1.9
		c-0.5,0.5-1.2,0.7-1.9,0.7c-1.5-0.1-2.6-1.3-2.5-2.8C412.1,163,413.2,161.9,414.7,161.9L414.7,161.9z M414.8,162.3
		c-1.3-0.1-2.3,0.9-2.4,2.2c-0.1,1.3,0.9,2.3,2.2,2.4c0,0,0,0,0,0c1.3,0.1,2.3-0.9,2.4-2.2c0,0,0,0,0,0c0-0.6-0.2-1.2-0.6-1.6
		C415.9,162.6,415.4,162.3,414.8,162.3L414.8,162.3z"/>
	<path class="st1" d="M414.7,149.2h0.1c0.7,0,1.4,0.3,1.8,0.9c0.5,0.5,0.7,1.2,0.7,1.9c0,0.7-0.4,1.4-0.9,1.9
		c-0.5,0.5-1.2,0.7-1.9,0.7c-1.5-0.1-2.6-1.3-2.5-2.8C412.1,150.3,413.2,149.2,414.7,149.2L414.7,149.2z M414.7,154.1
		c1.3,0,2.3-1,2.3-2.2s-1-2.3-2.2-2.3l0,0c-0.6,0-1.2,0.2-1.6,0.6c-1,0.8-1.1,2.3-0.2,3.2c0.4,0.5,1,0.8,1.7,0.8L414.7,154.1z"/>
	<path class="st1" d="M414.7,137.5h0.1c1.5,0.1,2.6,1.3,2.5,2.8c0,0.7-0.3,1.4-0.9,1.8c-1.1,1-2.8,0.9-3.8-0.2
		c-0.5-0.5-0.7-1.2-0.7-2C412.1,138.6,413.2,137.5,414.7,137.5L414.7,137.5z M414.7,142.4c0.6,0,1.1-0.2,1.5-0.6
		c1-0.8,1.1-2.3,0.2-3.2c-0.4-0.5-1-0.8-1.7-0.8l0,0c-1.3-0.1-2.3,0.9-2.4,2.1c0,0,0,0,0,0c0,0.6,0.2,1.2,0.6,1.6
		c0.4,0.5,1,0.7,1.6,0.8L414.7,142.4z"/>
	<path class="st1" d="M402.2,127.2h0.1c0.7,0,1.4,0.3,1.9,0.9c0.5,0.5,0.7,1.2,0.7,1.9c-0.1,1.5-1.3,2.6-2.8,2.5
		c-1.5-0.1-2.6-1.3-2.5-2.8C399.6,128.3,400.8,127.2,402.2,127.2z M402.3,127.6c-1.3-0.1-2.3,0.9-2.4,2.2c-0.1,1.3,0.9,2.3,2.2,2.4
		c1.3,0.1,2.3-0.9,2.4-2.2c0-0.6-0.2-1.2-0.6-1.7C403.5,127.9,402.9,127.6,402.3,127.6z"/>
	<path class="st1" d="M414.7,125.1h0.1c0.7,0,1.4,0.3,1.8,0.9c0.5,0.5,0.7,1.2,0.7,1.9c0,0.7-0.4,1.4-0.9,1.9
		c-1.1,1-2.8,0.9-3.8-0.2c-0.5-0.5-0.7-1.2-0.7-1.9C412.1,126.3,413.2,125.1,414.7,125.1L414.7,125.1z M414.7,130.1
		c1.2,0,2.2-1,2.3-2.2c0.1-1.3-0.9-2.3-2.2-2.4c0,0,0,0,0,0c-1.3-0.1-2.3,0.9-2.4,2.1c0,0,0,0,0,0c-0.1,1.3,0.9,2.3,2.2,2.4
		c0,0,0,0,0,0L414.7,130.1z"/>
	<path class="st1" d="M414.7,112.9h0.1c0.7,0,1.4,0.3,1.8,0.9c0.5,0.5,0.7,1.2,0.7,1.9c0,0.7-0.4,1.4-0.9,1.8
		c-1.1,1-2.8,0.9-3.8-0.2c-0.5-0.5-0.7-1.2-0.7-1.9C412.1,114,413.2,112.9,414.7,112.9L414.7,112.9z M414.7,117.8
		c1.3,0,2.3-1,2.3-2.2s-1-2.3-2.2-2.3l0,0c-0.6,0-1.2,0.2-1.6,0.6c-1,0.8-1.1,2.3-0.2,3.2c0.4,0.5,1,0.8,1.7,0.8L414.7,117.8z"/>
	<path class="st1" d="M427.9,163.5c1.5,0,2.7,1.2,2.7,2.7s-1.2,2.7-2.7,2.7c-1.5,0-2.7-1.2-2.7-2.7
		C425.3,164.7,426.5,163.5,427.9,163.5z M427.9,168.5c1.3,0,2.3-1,2.3-2.3s-1-2.3-2.3-2.3s-2.3,1-2.3,2.3l0,0
		C425.7,167.4,426.7,168.4,427.9,168.5L427.9,168.5z"/>
	<path class="st1" d="M427.9,142.6c1.5,0,2.7,1.2,2.7,2.7c0,1.5-1.2,2.7-2.7,2.7s-2.7-1.2-2.7-2.7c0,0,0,0,0,0
		C425.3,143.7,426.5,142.6,427.9,142.6z M427.9,147.5c1.3,0,2.3-1,2.3-2.3c0-1.3-1-2.3-2.3-2.3c-1.3,0-2.3,1-2.3,2.3c0,0,0,0,0,0
		C425.6,146.5,426.7,147.5,427.9,147.5z"/>
	<path class="st1" d="M427.9,126.6c1.5,0,2.7,1.2,2.7,2.7c0,1.5-1.2,2.7-2.7,2.7c-1.5,0-2.7-1.2-2.7-2.7
		C425.3,127.8,426.5,126.6,427.9,126.6C427.9,126.6,427.9,126.6,427.9,126.6z M427.9,131.6c1.3,0,2.3-1,2.3-2.3s-1-2.3-2.3-2.3
		s-2.3,1-2.3,2.3c0,0,0,0,0,0C425.7,130.6,426.7,131.5,427.9,131.6L427.9,131.6z"/>
	<path class="st1" d="M427.9,115.8c1.5,0,2.7,1.2,2.7,2.7s-1.2,2.7-2.7,2.7c-1.5,0-2.7-1.2-2.7-2.7
		C425.3,117,426.5,115.8,427.9,115.8L427.9,115.8z M427.9,120.7c1.3,0,2.3-1,2.3-2.3s-1-2.3-2.3-2.3s-2.3,1-2.3,2.3c0,0,0,0,0,0
		C425.7,119.7,426.7,120.7,427.9,120.7z"/>
	<path class="st1" d="M402.1,168.1c1.1,0,2,0.9,2,2s-0.9,2-2,2s-2-0.9-2-2S401,168.1,402.1,168.1z M402.1,171.7
		c0.9,0,1.6-0.7,1.6-1.6s-0.7-1.6-1.6-1.6c-0.9,0-1.6,0.7-1.6,1.6l0,0C400.6,171,401.3,171.7,402.1,171.7z"/>
	<path class="st1" d="M402.1,158.4c1.1,0,2,0.9,2,2s-0.9,2-2,2s-2-0.9-2-2S401,158.4,402.1,158.4z M402.1,161.9
		c0.9,0,1.6-0.7,1.6-1.6s-0.7-1.6-1.6-1.6c-0.9,0-1.6,0.7-1.6,1.6l0,0C400.6,161.2,401.3,161.9,402.1,161.9L402.1,161.9z"/>
	<path class="st1" d="M425.5,136.3h5v3.2h-5V136.3z M430,136.7h-4.2v2.4h4.2L430,136.7z"/>
	<path class="st1" d="M425.3,151.7h5v3.1h-5V151.7z M429.8,152.1h-4.2v2.4h4.2V152.1z"/>
	<path class="st1" d="M425.3,156.6h5v3.1h-5V156.6z M429.8,157h-4.2v2.4h4.2V157z"/>
	<path class="st1" d="M399.7,146.5h5v3.1h-5V146.5z M404.3,146.9h-4.2v2.4h4.2V146.9z"/>
	<path class="st1" d="M399.7,151.4h5v3.1h-5V151.4z M404.3,151.8h-4.2v2.4h4.2V151.8z"/>
	<path class="st1" d="M399.7,136.7h5v3.2h-5V136.7z M404.3,137.1h-4.2v2.4h4.2V137.1z"/>
	<path class="st1" d="M399.7,141.6h5v3.2h-5V141.6z M404.3,142h-4.2v2.4h4.2V142z"/>
	<path class="st1" d="M425.3,109.2h5v3.2h-5V109.2z M429.8,109.6h-4.2v2.4h4.2V109.6z"/>
	<path class="st1" d="M336.1,173.5c1.3,0,2.4,0.9,2.6,2.2c0.1,0.7,0,1.4-0.4,2c-0.4,0.6-1,1-1.7,1.1c-1.4,0.3-2.8-0.7-3.1-2.1
		c-0.3-1.4,0.7-2.8,2.1-3.1C335.8,173.5,336,173.5,336.1,173.5z M336.1,178.5c0.1,0,0.3,0,0.4,0c1.2-0.2,2-1.4,1.8-2.7
		c-0.1-0.6-0.5-1.1-1-1.5c-1.1-0.7-2.5-0.4-3.2,0.6c-0.3,0.5-0.5,1.1-0.3,1.7C334.1,177.7,335,178.5,336.1,178.5L336.1,178.5z"/>
	<path class="st1" d="M349.4,173.5c0.7,0,1.3,0.2,1.8,0.7c1.1,1,1.2,2.7,0.2,3.8c-0.5,0.5-1.1,0.8-1.9,0.9c-1.5,0.1-2.7-1.1-2.8-2.5
		c-0.1-1.5,1.1-2.7,2.5-2.8L349.4,173.5L349.4,173.5z M349.4,178.5h0.1c1.3,0,2.3-1,2.3-2.3c0-1.3-1-2.3-2.3-2.3c-0.1,0-0.1,0-0.2,0
		l0,0c-1.3,0.1-2.2,1.1-2.2,2.4c0,0,0,0,0,0C347.2,177.5,348.2,178.5,349.4,178.5L349.4,178.5z"/>
	<path class="st1" d="M349.4,162c1.4,0,2.6,1.1,2.7,2.5c0,0.7-0.2,1.4-0.7,1.9c-0.5,0.5-1.1,0.8-1.9,0.9c-1.5,0.1-2.7-1.1-2.8-2.5
		c0-0.7,0.2-1.4,0.7-1.9c0.5-0.5,1.1-0.8,1.9-0.9l0,0L349.4,162z M349.4,167h0.1c1.3-0.1,2.2-1.1,2.2-2.4c-0.1-1.3-1.1-2.2-2.4-2.2
		c-1.3,0.1-2.2,1.1-2.2,2.4C347.2,166,348.2,167,349.4,167z"/>
	<path class="st1" d="M349.4,149.2c0.7,0,1.3,0.2,1.8,0.7c1.1,1,1.2,2.7,0.2,3.8c0,0,0,0,0,0c-1,1.1-2.7,1.2-3.8,0.2
		c-0.5-0.5-0.8-1.1-0.9-1.8c-0.1-1.5,1.1-2.7,2.5-2.8H349.4L349.4,149.2z M349.4,154.2h0.1c1.3-0.1,2.2-1.1,2.2-2.4
		c-0.1-1.3-1.1-2.2-2.4-2.2l0,0c-1.3,0-2.3,1.1-2.2,2.3S348.1,154.2,349.4,154.2L349.4,154.2L349.4,154.2z"/>
	<path class="st1" d="M349.4,137.6c0.7,0,1.3,0.2,1.8,0.7c1.1,1,1.2,2.7,0.2,3.8c-1,1.1-2.7,1.2-3.8,0.2c-0.5-0.5-0.8-1.1-0.9-1.8
		c-0.1-1.5,1.1-2.7,2.5-2.8L349.4,137.6L349.4,137.6z M349.4,142.5h0.1c1.3,0,2.3-1,2.3-2.3c0-1.3-1-2.3-2.3-2.3c-0.1,0-0.1,0-0.2,0
		l0,0c-1.3,0-2.2,1.1-2.2,2.3c0,0.6,0.3,1.3,0.8,1.7C348.3,142.3,348.8,142.5,349.4,142.5z"/>
	<path class="st1" d="M361.9,127.2c1.5,0.1,2.6,1.3,2.6,2.8c0,1.4-1.1,2.5-2.5,2.6c-1.5,0.1-2.7-1.1-2.8-2.5c0-0.7,0.2-1.4,0.7-1.9
		c0.5-0.5,1.1-0.8,1.9-0.9H361.9z M361.9,132.2h0.1c1.2,0,2.1-1,2.1-2.2c0-1.2-1-2.1-2.2-2.1c-1.2,0-2.1,1-2.1,2.2
		C359.8,131.3,360.8,132.2,361.9,132.2L361.9,132.2z"/>
	<path class="st1" d="M349.4,125.2c1.4,0,2.6,1.1,2.7,2.5c0,0.7-0.2,1.4-0.7,1.9c-0.5,0.5-1.1,0.8-1.9,0.9c-1.5,0.1-2.7-1.1-2.8-2.5
		c0-0.7,0.2-1.4,0.7-1.9c0.5-0.5,1.1-0.8,1.9-0.9H349.4z M349.4,130.1h0.1c1.3-0.1,2.2-1.1,2.2-2.4c-0.1-1.3-1.1-2.2-2.4-2.2
		c0,0,0,0,0,0l0,0c-1.3,0-2.3,1.1-2.2,2.3S348.2,130.2,349.4,130.1L349.4,130.1z"/>
	<path class="st1" d="M349.4,113c0.7,0,1.3,0.2,1.8,0.7c1.1,1,1.2,2.7,0.2,3.8c-1,1.1-2.7,1.2-3.8,0.2c-0.5-0.5-0.8-1.1-0.9-1.8
		c-0.1-1.5,1.1-2.7,2.5-2.8H349.4L349.4,113z M349.4,118h0.1c0.6,0,1.2-0.3,1.6-0.8c0.4-0.4,0.6-1,0.6-1.6c-0.1-1.3-1.1-2.2-2.4-2.2
		c0,0,0,0,0,0l0,0c-1.3,0-2.3,1.1-2.2,2.3S348.1,118,349.4,118L349.4,118L349.4,118z"/>
	<path class="st1" d="M336.1,157.7c1.5,0,2.7,1.2,2.7,2.7c0,1.5-1.2,2.7-2.7,2.7s-2.7-1.2-2.7-2.7c0,0,0,0,0,0
		C333.5,158.9,334.7,157.7,336.1,157.7z M336.1,162.7c1.3,0,2.3-1,2.3-2.3s-1-2.3-2.3-2.3s-2.3,1-2.3,2.3l0,0
		C333.9,161.7,334.9,162.7,336.1,162.7L336.1,162.7z"/>
	<path class="st1" d="M336.1,142.6c1.5,0,2.7,1.2,2.7,2.7c0,1.5-1.2,2.7-2.7,2.7s-2.7-1.2-2.7-2.7c0,0,0,0,0,0
		C333.5,143.8,334.7,142.6,336.1,142.6z M336.1,147.6c1.3,0,2.3-1,2.3-2.3s-1-2.3-2.3-2.3s-2.3,1-2.3,2.3l0,0
		C333.9,146.5,334.9,147.6,336.1,147.6z"/>
	<path class="st1" d="M336.1,126.6c1.5,0,2.7,1.2,2.7,2.7c0,1.5-1.2,2.7-2.7,2.7s-2.7-1.2-2.7-2.7c0,0,0,0,0,0
		C333.5,127.8,334.7,126.7,336.1,126.6z M336.1,131.6c1.3,0,2.3-1,2.3-2.3s-1-2.3-2.3-2.3s-2.3,1-2.3,2.3l0,0
		C333.9,130.6,334.9,131.6,336.1,131.6z"/>
	<path class="st1" d="M336.1,115.8c1.5,0,2.7,1.2,2.7,2.7c0,1.5-1.2,2.7-2.7,2.7c-1.5,0-2.7-1.2-2.7-2.7c0,0,0,0,0,0
		C333.5,117,334.7,115.8,336.1,115.8z M336.1,120.8c1.3,0,2.3-1,2.3-2.3s-1-2.3-2.3-2.3s-2.3,1-2.3,2.3l0,0
		C333.9,119.8,334.9,120.8,336.1,120.8L336.1,120.8z"/>
	<path class="st1" d="M361.9,168.2c1.1,0,2,0.9,2,2s-0.9,2-2,2s-2-0.9-2-2S360.8,168.2,361.9,168.2z M361.9,171.8
		c0.9,0,1.6-0.7,1.6-1.6s-0.7-1.6-1.6-1.6s-1.6,0.7-1.6,1.6c0,0,0,0,0,0C360.3,171,361,171.7,361.9,171.8z"/>
	<path class="st1" d="M361.9,158.4c1.1,0,2,0.9,2,2s-0.9,2-2,2s-2-0.9-2-2S360.8,158.4,361.9,158.4z M361.9,162
		c0.9,0,1.6-0.7,1.6-1.6s-0.7-1.6-1.6-1.6c-0.9,0-1.6,0.7-1.6,1.6l0,0C360.3,161.3,361,162,361.9,162C361.9,162,361.9,162,361.9,162
		L361.9,162z"/>
	<path class="st1" d="M359.4,146.6h5v3.2h-5V146.6z M363.9,146.9h-4.2v2.4h4.2V146.9z"/>
	<path class="st1" d="M359.4,151.5h5v3.2h-5V151.5z M363.9,151.9h-4.2v2.4h4.2V151.9z"/>
	<path class="st1" d="M359.4,136.7h5v3.1h-5V136.7z M363.9,137.1h-4.2v2.4h4.2V137.1z"/>
	<path class="st1" d="M359.4,141.6h5v3.1h-5V141.6z M363.9,142h-4.2v2.4h4.2V142z"/>
	<path class="st1" d="M333.9,109.3h5v3.2h-5V109.3z M338.4,109.6h-4.2v2.3h4.2V109.6z"/>
	<path class="st1" d="M388.9,163.6h4.5v3.5h-4.5V163.6z M393,164h-3.7v2.8h3.7V164z"/>
	<path class="st1" d="M370.9,163.6h4.5v3.5h-4.5V163.6z M375,164h-3.7v2.8h3.7V164z"/>
	<path class="st1" d="M388.9,130.6h4.5v31.7h-4.5V130.6z M393,131h-3.7v31h3.7V131z"/>
	<path class="st1" d="M370.9,130.6h4.5v31.7h-4.5V130.6z M375,131h-3.7v31h3.7V131z"/>
	<path class="st1" d="M382.7,130.6h5.6v31.7h-5.6V130.6z M387.9,131h-4.9v31h4.9V131z"/>
	<path class="st1" d="M376.1,130.6h5.4v31.7h-5.4V130.6z M381.1,131h-4.6v31h4.6V131z"/>
	<path class="st1" d="M399.7,175.2h5v2.9h-5V175.2z M404.3,175.6h-4.2v2.2h4.2V175.6z"/>
	<path class="st1" d="M359.2,175.2h5v2.9h-5V175.2z M363.8,175.6h-4.2v2.2h4.2V175.6z"/>
	<path class="st1" d="M385.8,94.1h-7.4v-7.4h7.4V94.1z M378.9,93.6h6.4v-6.4h-6.4V93.6z"/>
	<path class="st1" d="M368.7,91.9h-11.1v-5.2h11.1V91.9z M358.1,91.4h10.1v-4.3h-10.1V91.4z"/>
	<path class="st1" d="M405.1,91.9H394v-5.2h11.1L405.1,91.9z M394.5,91.4h10.1v-4.3h-10.1L394.5,91.4z"/>
</g>
</svg>
